<svg xmlns="http://www.w3.org/2000/svg" version="1.1" xmlns:xlink="http://www.w3.org/1999/xlink" xmlns:svgjs="http://svgjs.com/svgjs" width="1920" height="1080" preserveAspectRatio="none" viewBox="0 0 1920 1080"><g mask="url(&quot;#SvgjsMask1000&quot;)" fill="none"><rect width="1920" height="1080" x="0" y="0" fill="#0e2a47"></rect><path d="M182.07 90.81L284.27 149.81L284.27 267.81L182.07 326.81L79.88 267.81L79.88 149.81zM79.88 267.81L182.07 326.81L182.07 444.81L79.88 503.81L-22.31 444.81L-22.31 326.81zM79.88 621.81L182.07 680.81L182.07 798.81L79.88 857.81L-22.31 798.81L-22.31 680.81zM182.07 798.81L284.27 857.81L284.27 975.81L182.07 1034.81L79.88 975.81L79.88 857.81zM284.27 -86.19L386.46 -27.19L386.46 90.81L284.27 149.81L182.07 90.81L182.07 -27.19zM386.46 444.81L488.66 503.81L488.66 621.81L386.46 680.81L284.27 621.81L284.27 503.81zM795.24 444.81L897.43 503.81L897.43 621.81L795.24 680.81L693.04 621.81L693.04 503.81zM693.04 621.81L795.24 680.81L795.24 798.81L693.04 857.81L590.85 798.81L590.85 680.81zM795.24 798.81L897.43 857.81L897.43 975.81L795.24 1034.81L693.04 975.81L693.04 857.81zM1204.01 90.81L1306.21 149.81L1306.21 267.81L1204.01 326.81L1101.82 267.81L1101.82 149.81zM1101.82 267.81L1204.01 326.81L1204.01 444.81L1101.82 503.81L999.63 444.81L999.63 326.81zM1204.01 444.81L1306.21 503.81L1306.21 621.81L1204.01 680.81L1101.82 621.81L1101.82 503.81zM1204.01 798.81L1306.21 857.81L1306.21 975.81L1204.01 1034.81L1101.82 975.81L1101.82 857.81zM1101.82 975.81L1204.01 1034.81L1204.01 1152.81L1101.82 1211.81L999.63 1152.81L999.63 1034.81zM1306.21 -86.19L1408.4 -27.19L1408.4 90.81L1306.21 149.81L1204.01 90.81L1204.01 -27.19zM1408.4 798.81L1510.59 857.81L1510.59 975.81L1408.4 1034.81L1306.21 975.81L1306.21 857.81zM1510.59 267.81L1612.79 326.81L1612.79 444.81L1510.59 503.81L1408.4 444.81L1408.4 326.81zM1714.98 -86.19L1817.18 -27.19L1817.18 90.81L1714.98 149.81L1612.79 90.81L1612.79 -27.19zM1817.18 90.81L1919.37 149.81L1919.37 267.81L1817.18 326.81L1714.98 267.81L1714.98 149.81zM1714.98 621.81L1817.18 680.81L1817.18 798.81L1714.98 857.81L1612.79 798.81L1612.79 680.81zM1714.98 975.81L1817.18 1034.81L1817.18 1152.81L1714.98 1211.81L1612.79 1152.81L1612.79 1034.81zM1919.37 -86.19L2021.56 -27.19L2021.56 90.81L1919.37 149.81L1817.18 90.81L1817.18 -27.19zM2021.56 90.81L2123.76 149.81L2123.76 267.81L2021.56 326.81L1919.37 267.81L1919.37 149.81zM1919.37 267.81L2021.56 326.81L2021.56 444.81L1919.37 503.81L1817.18 444.81L1817.18 326.81zM1919.37 975.81L2021.56 1034.81L2021.56 1152.81L1919.37 1211.81L1817.18 1152.81L1817.18 1034.81z" stroke="#03305d" stroke-width="2"></path><path d="M170.27 90.81 a11.8 11.8 0 1 0 23.6 0 a11.8 11.8 0 1 0 -23.6 0zM272.47 149.81 a11.8 11.8 0 1 0 23.6 0 a11.8 11.8 0 1 0 -23.6 0zM272.47 267.81 a11.8 11.8 0 1 0 23.6 0 a11.8 11.8 0 1 0 -23.6 0zM170.27 326.81 a11.8 11.8 0 1 0 23.6 0 a11.8 11.8 0 1 0 -23.6 0zM68.08 267.81 a11.8 11.8 0 1 0 23.6 0 a11.8 11.8 0 1 0 -23.6 0zM68.08 149.81 a11.8 11.8 0 1 0 23.6 0 a11.8 11.8 0 1 0 -23.6 0zM170.27 444.81 a11.8 11.8 0 1 0 23.6 0 a11.8 11.8 0 1 0 -23.6 0zM68.08 503.81 a11.8 11.8 0 1 0 23.6 0 a11.8 11.8 0 1 0 -23.6 0zM-34.11 444.81 a11.8 11.8 0 1 0 23.6 0 a11.8 11.8 0 1 0 -23.6 0zM-34.11 326.81 a11.8 11.8 0 1 0 23.6 0 a11.8 11.8 0 1 0 -23.6 0zM68.08 621.81 a11.8 11.8 0 1 0 23.6 0 a11.8 11.8 0 1 0 -23.6 0zM170.27 680.81 a11.8 11.8 0 1 0 23.6 0 a11.8 11.8 0 1 0 -23.6 0zM170.27 798.81 a11.8 11.8 0 1 0 23.6 0 a11.8 11.8 0 1 0 -23.6 0zM68.08 857.81 a11.8 11.8 0 1 0 23.6 0 a11.8 11.8 0 1 0 -23.6 0zM-34.11 798.81 a11.8 11.8 0 1 0 23.6 0 a11.8 11.8 0 1 0 -23.6 0zM-34.11 680.81 a11.8 11.8 0 1 0 23.6 0 a11.8 11.8 0 1 0 -23.6 0zM272.47 857.81 a11.8 11.8 0 1 0 23.6 0 a11.8 11.8 0 1 0 -23.6 0zM272.47 975.81 a11.8 11.8 0 1 0 23.6 0 a11.8 11.8 0 1 0 -23.6 0zM170.27 1034.81 a11.8 11.8 0 1 0 23.6 0 a11.8 11.8 0 1 0 -23.6 0zM68.08 975.81 a11.8 11.8 0 1 0 23.6 0 a11.8 11.8 0 1 0 -23.6 0zM272.47 -86.19 a11.8 11.8 0 1 0 23.6 0 a11.8 11.8 0 1 0 -23.6 0zM374.66 -27.19 a11.8 11.8 0 1 0 23.6 0 a11.8 11.8 0 1 0 -23.6 0zM374.66 90.81 a11.8 11.8 0 1 0 23.6 0 a11.8 11.8 0 1 0 -23.6 0zM170.27 -27.19 a11.8 11.8 0 1 0 23.6 0 a11.8 11.8 0 1 0 -23.6 0zM374.66 444.81 a11.8 11.8 0 1 0 23.6 0 a11.8 11.8 0 1 0 -23.6 0zM476.86 503.81 a11.8 11.8 0 1 0 23.6 0 a11.8 11.8 0 1 0 -23.6 0zM476.86 621.81 a11.8 11.8 0 1 0 23.6 0 a11.8 11.8 0 1 0 -23.6 0zM374.66 680.81 a11.8 11.8 0 1 0 23.6 0 a11.8 11.8 0 1 0 -23.6 0zM272.47 621.81 a11.8 11.8 0 1 0 23.6 0 a11.8 11.8 0 1 0 -23.6 0zM272.47 503.81 a11.8 11.8 0 1 0 23.6 0 a11.8 11.8 0 1 0 -23.6 0zM783.44 444.81 a11.8 11.8 0 1 0 23.6 0 a11.8 11.8 0 1 0 -23.6 0zM885.63 503.81 a11.8 11.8 0 1 0 23.6 0 a11.8 11.8 0 1 0 -23.6 0zM885.63 621.81 a11.8 11.8 0 1 0 23.6 0 a11.8 11.8 0 1 0 -23.6 0zM783.44 680.81 a11.8 11.8 0 1 0 23.6 0 a11.8 11.8 0 1 0 -23.6 0zM681.24 621.81 a11.8 11.8 0 1 0 23.6 0 a11.8 11.8 0 1 0 -23.6 0zM681.24 503.81 a11.8 11.8 0 1 0 23.6 0 a11.8 11.8 0 1 0 -23.6 0zM783.44 798.81 a11.8 11.8 0 1 0 23.6 0 a11.8 11.8 0 1 0 -23.6 0zM681.24 857.81 a11.8 11.8 0 1 0 23.6 0 a11.8 11.8 0 1 0 -23.6 0zM579.05 798.81 a11.8 11.8 0 1 0 23.6 0 a11.8 11.8 0 1 0 -23.6 0zM579.05 680.81 a11.8 11.8 0 1 0 23.6 0 a11.8 11.8 0 1 0 -23.6 0zM885.63 857.81 a11.8 11.8 0 1 0 23.6 0 a11.8 11.8 0 1 0 -23.6 0zM885.63 975.81 a11.8 11.8 0 1 0 23.6 0 a11.8 11.8 0 1 0 -23.6 0zM783.44 1034.81 a11.8 11.8 0 1 0 23.6 0 a11.8 11.8 0 1 0 -23.6 0zM681.24 975.81 a11.8 11.8 0 1 0 23.6 0 a11.8 11.8 0 1 0 -23.6 0zM1192.21 90.81 a11.8 11.8 0 1 0 23.6 0 a11.8 11.8 0 1 0 -23.6 0zM1294.41 149.81 a11.8 11.8 0 1 0 23.6 0 a11.8 11.8 0 1 0 -23.6 0zM1294.41 267.81 a11.8 11.8 0 1 0 23.6 0 a11.8 11.8 0 1 0 -23.6 0zM1192.21 326.81 a11.8 11.8 0 1 0 23.6 0 a11.8 11.8 0 1 0 -23.6 0zM1090.02 267.81 a11.8 11.8 0 1 0 23.6 0 a11.8 11.8 0 1 0 -23.6 0zM1090.02 149.81 a11.8 11.8 0 1 0 23.6 0 a11.8 11.8 0 1 0 -23.6 0zM1192.21 444.81 a11.8 11.8 0 1 0 23.6 0 a11.8 11.8 0 1 0 -23.6 0zM1090.02 503.81 a11.8 11.8 0 1 0 23.6 0 a11.8 11.8 0 1 0 -23.6 0zM987.83 444.81 a11.8 11.8 0 1 0 23.6 0 a11.8 11.8 0 1 0 -23.6 0zM987.83 326.81 a11.8 11.8 0 1 0 23.6 0 a11.8 11.8 0 1 0 -23.6 0zM1294.41 503.81 a11.8 11.8 0 1 0 23.6 0 a11.8 11.8 0 1 0 -23.6 0zM1294.41 621.81 a11.8 11.8 0 1 0 23.6 0 a11.8 11.8 0 1 0 -23.6 0zM1192.21 680.81 a11.8 11.8 0 1 0 23.6 0 a11.8 11.8 0 1 0 -23.6 0zM1090.02 621.81 a11.8 11.8 0 1 0 23.6 0 a11.8 11.8 0 1 0 -23.6 0zM1192.21 798.81 a11.8 11.8 0 1 0 23.6 0 a11.8 11.8 0 1 0 -23.6 0zM1294.41 857.81 a11.8 11.8 0 1 0 23.6 0 a11.8 11.8 0 1 0 -23.6 0zM1294.41 975.81 a11.8 11.8 0 1 0 23.6 0 a11.8 11.8 0 1 0 -23.6 0zM1192.21 1034.81 a11.8 11.8 0 1 0 23.6 0 a11.8 11.8 0 1 0 -23.6 0zM1090.02 975.81 a11.8 11.8 0 1 0 23.6 0 a11.8 11.8 0 1 0 -23.6 0zM1090.02 857.81 a11.8 11.8 0 1 0 23.6 0 a11.8 11.8 0 1 0 -23.6 0zM1192.21 1152.81 a11.8 11.8 0 1 0 23.6 0 a11.8 11.8 0 1 0 -23.6 0zM1090.02 1211.81 a11.8 11.8 0 1 0 23.6 0 a11.8 11.8 0 1 0 -23.6 0zM987.83 1152.81 a11.8 11.8 0 1 0 23.6 0 a11.8 11.8 0 1 0 -23.6 0zM987.83 1034.81 a11.8 11.8 0 1 0 23.6 0 a11.8 11.8 0 1 0 -23.6 0zM1294.41 -86.19 a11.8 11.8 0 1 0 23.6 0 a11.8 11.8 0 1 0 -23.6 0zM1396.6 -27.19 a11.8 11.8 0 1 0 23.6 0 a11.8 11.8 0 1 0 -23.6 0zM1396.6 90.81 a11.8 11.8 0 1 0 23.6 0 a11.8 11.8 0 1 0 -23.6 0zM1192.21 -27.19 a11.8 11.8 0 1 0 23.6 0 a11.8 11.8 0 1 0 -23.6 0zM1396.6 798.81 a11.8 11.8 0 1 0 23.6 0 a11.8 11.8 0 1 0 -23.6 0zM1498.79 857.81 a11.8 11.8 0 1 0 23.6 0 a11.8 11.8 0 1 0 -23.6 0zM1498.79 975.81 a11.8 11.8 0 1 0 23.6 0 a11.8 11.8 0 1 0 -23.6 0zM1396.6 1034.81 a11.8 11.8 0 1 0 23.6 0 a11.8 11.8 0 1 0 -23.6 0zM1498.79 267.81 a11.8 11.8 0 1 0 23.6 0 a11.8 11.8 0 1 0 -23.6 0zM1600.99 326.81 a11.8 11.8 0 1 0 23.6 0 a11.8 11.8 0 1 0 -23.6 0zM1600.99 444.81 a11.8 11.8 0 1 0 23.6 0 a11.8 11.8 0 1 0 -23.6 0zM1498.79 503.81 a11.8 11.8 0 1 0 23.6 0 a11.8 11.8 0 1 0 -23.6 0zM1396.6 444.81 a11.8 11.8 0 1 0 23.6 0 a11.8 11.8 0 1 0 -23.6 0zM1396.6 326.81 a11.8 11.8 0 1 0 23.6 0 a11.8 11.8 0 1 0 -23.6 0zM1703.18 -86.19 a11.8 11.8 0 1 0 23.6 0 a11.8 11.8 0 1 0 -23.6 0zM1805.38 -27.19 a11.8 11.8 0 1 0 23.6 0 a11.8 11.8 0 1 0 -23.6 0zM1805.38 90.81 a11.8 11.8 0 1 0 23.6 0 a11.8 11.8 0 1 0 -23.6 0zM1703.18 149.81 a11.8 11.8 0 1 0 23.6 0 a11.8 11.8 0 1 0 -23.6 0zM1600.99 90.81 a11.8 11.8 0 1 0 23.6 0 a11.8 11.8 0 1 0 -23.6 0zM1600.99 -27.19 a11.8 11.8 0 1 0 23.6 0 a11.8 11.8 0 1 0 -23.6 0zM1907.57 149.81 a11.8 11.8 0 1 0 23.6 0 a11.8 11.8 0 1 0 -23.6 0zM1907.57 267.81 a11.8 11.8 0 1 0 23.6 0 a11.8 11.8 0 1 0 -23.6 0zM1805.38 326.81 a11.8 11.8 0 1 0 23.6 0 a11.8 11.8 0 1 0 -23.6 0zM1703.18 267.81 a11.8 11.8 0 1 0 23.6 0 a11.8 11.8 0 1 0 -23.6 0zM1703.18 621.81 a11.8 11.8 0 1 0 23.6 0 a11.8 11.8 0 1 0 -23.6 0zM1805.38 680.81 a11.8 11.8 0 1 0 23.6 0 a11.8 11.8 0 1 0 -23.6 0zM1805.38 798.81 a11.8 11.8 0 1 0 23.6 0 a11.8 11.8 0 1 0 -23.6 0zM1703.18 857.81 a11.8 11.8 0 1 0 23.6 0 a11.8 11.8 0 1 0 -23.6 0zM1600.99 798.81 a11.8 11.8 0 1 0 23.6 0 a11.8 11.8 0 1 0 -23.6 0zM1600.99 680.81 a11.8 11.8 0 1 0 23.6 0 a11.8 11.8 0 1 0 -23.6 0zM1703.18 975.81 a11.8 11.8 0 1 0 23.6 0 a11.8 11.8 0 1 0 -23.6 0zM1805.38 1034.81 a11.8 11.8 0 1 0 23.6 0 a11.8 11.8 0 1 0 -23.6 0zM1805.38 1152.81 a11.8 11.8 0 1 0 23.6 0 a11.8 11.8 0 1 0 -23.6 0zM1703.18 1211.81 a11.8 11.8 0 1 0 23.6 0 a11.8 11.8 0 1 0 -23.6 0zM1600.99 1152.81 a11.8 11.8 0 1 0 23.6 0 a11.8 11.8 0 1 0 -23.6 0zM1600.99 1034.81 a11.8 11.8 0 1 0 23.6 0 a11.8 11.8 0 1 0 -23.6 0zM1907.57 -86.19 a11.8 11.8 0 1 0 23.6 0 a11.8 11.8 0 1 0 -23.6 0zM2009.76 -27.19 a11.8 11.8 0 1 0 23.6 0 a11.8 11.8 0 1 0 -23.6 0zM2009.76 90.81 a11.8 11.8 0 1 0 23.6 0 a11.8 11.8 0 1 0 -23.6 0zM2111.96 149.81 a11.8 11.8 0 1 0 23.6 0 a11.8 11.8 0 1 0 -23.6 0zM2111.96 267.81 a11.8 11.8 0 1 0 23.6 0 a11.8 11.8 0 1 0 -23.6 0zM2009.76 326.81 a11.8 11.8 0 1 0 23.6 0 a11.8 11.8 0 1 0 -23.6 0zM2009.76 444.81 a11.8 11.8 0 1 0 23.6 0 a11.8 11.8 0 1 0 -23.6 0zM1907.57 503.81 a11.8 11.8 0 1 0 23.6 0 a11.8 11.8 0 1 0 -23.6 0zM1805.38 444.81 a11.8 11.8 0 1 0 23.6 0 a11.8 11.8 0 1 0 -23.6 0zM1907.57 975.81 a11.8 11.8 0 1 0 23.6 0 a11.8 11.8 0 1 0 -23.6 0zM2009.76 1034.81 a11.8 11.8 0 1 0 23.6 0 a11.8 11.8 0 1 0 -23.6 0zM2009.76 1152.81 a11.8 11.8 0 1 0 23.6 0 a11.8 11.8 0 1 0 -23.6 0zM1907.57 1211.81 a11.8 11.8 0 1 0 23.6 0 a11.8 11.8 0 1 0 -23.6 0z" fill="#03305d"></path><path d="M167.52 -108.21L340.73 -8.21L340.73 191.79L167.52 291.79L-5.69 191.79L-5.69 -8.21zM167.52 1091.79L340.73 1191.79L340.73 1391.79L167.52 1491.79L-5.69 1391.79L-5.69 1191.79zM687.15 191.79L860.36 291.79L860.36 491.79L687.15 591.79L513.94 491.79L513.94 291.79zM687.15 791.79L860.36 891.79L860.36 1091.79L687.15 1191.79L513.94 1091.79L513.94 891.79zM513.94 1091.79L687.15 1191.79L687.15 1391.79L513.94 1491.79L340.73 1391.79L340.73 1191.79zM860.36 491.79L1033.57 591.79L1033.57 791.79L860.36 891.79L687.15 791.79L687.15 591.79zM1033.57 791.79L1206.78 891.79L1206.78 1091.79L1033.57 1191.79L860.36 1091.79L860.36 891.79zM1206.78 -108.21L1379.99 -8.21L1379.99 191.79L1206.78 291.79L1033.57 191.79L1033.57 -8.21zM1553.2 -108.21L1726.41 -8.21L1726.41 191.79L1553.2 291.79L1379.99 191.79L1379.99 -8.21zM1726.41 191.79L1899.62 291.79L1899.62 491.79L1726.41 591.79L1553.2 491.79L1553.2 291.79zM1553.2 1091.79L1726.41 1191.79L1726.41 1391.79L1553.2 1491.79L1379.99 1391.79L1379.99 1191.79zM1899.62 -108.21L2072.83 -8.21L2072.83 191.79L1899.62 291.79L1726.41 191.79L1726.41 -8.21zM2072.83 191.79L2246.04 291.79L2246.04 491.79L2072.83 591.79L1899.62 491.79L1899.62 291.79zM1899.62 491.79L2072.83 591.79L2072.83 791.79L1899.62 891.79L1726.41 791.79L1726.41 591.79z" stroke="rgba(6, 80, 156, 0.93)" stroke-width="2"></path></g><defs><mask id="SvgjsMask1000"><rect width="1920" height="1080" fill="#ffffff"></rect></mask></defs></svg>